<svg id="Capa_1" data-name="Capa 1" xmlns="http://www.w3.org/2000/svg" viewBox="0 0 1500 170.84"><defs><style>.cls-1,.cls-3{fill:#ea0029;}.cls-2{fill:#00ae42;}.cls-2,.cls-3,.cls-5{fill-rule:evenodd;}.cls-4,.cls-5{fill:#fff;}</style></defs><title>logo-echevarne-blanco</title><path class="cls-1" d="M254.1,160.7a19.23,19.23,0,0,1-5.62-.78,11.15,11.15,0,0,1-6.89-5.33c-.9-1.67-1.43-2.87-2.06-4.26l-.6-1.33,7.12-3.25.62,1.38c.61,1.36,1.05,2.34,1.83,3.79a3.77,3.77,0,0,0,2.27,1.51,14.49,14.49,0,0,0,7.79-.19,16.67,16.67,0,0,1-1-1.61c-.48-.91-1.25-1.27-4.59-1.5l.54-7.81c3.09.21,8.26.57,11,5.63a12,12,0,0,0,1.29,1.85c1,1.2,2.42,3,1.91,5.48a6.28,6.28,0,0,1-3.47,4.08A22.29,22.29,0,0,1,254.1,160.7Z" transform="translate(0.34 -0.13)"/><path class="cls-2" d="M100.38.13c3.89,2.79,9.27,3.69,9.27,10,0,36.67-50.83,96.59-90,115.87C45.34,90.61,100.87,42.42,100.38.13Z" transform="translate(0.34 -0.13)"/><path class="cls-3" d="M188.64,12.67c2.82,0,14.89-.92,21.13,12-9.23.61-80.06.3-80.06,22.11,0,6.32,5.33,8.85,11.6,9l58.9,12.33-.62,9.8c-22,4.53-97.46,1.7-97.46,30.79,0,6.32,3.61,7.7,6.75,7.68h90.27c2.91,2.8,5.78,6.22,5.41,12.36l-100.08-.07c-12.1-2.54-17.4-15.55-17.4-18.71,0-30.66,56.14-34.94,67.7-40.44-3.06-.79-40.12,0-40.12-22.78C114.66,20.57,178.6,12.67,188.64,12.67Z" transform="translate(0.34 -0.13)"/><path class="cls-2" d="M45.71,129c25.39,0,50.15,25.29,75.22,25.29,6.27,0,43.88-15.18,50.15-15.18,24.76,0,30.11,23.11,63,15.22l5.92,6.36c-6.63,7.13-12.85,8.77-18.8,8.77-17.86,0-33.85-17.7-53.91-17.7-6.27,0-43.88,15.17-50.15,15.17-26.95,0-40.43-25.29-75.22-25.29-6.27,0-23.48,5-42.29,9.86l4-5.75C6.43,143.76,38.19,129,45.71,129Z" transform="translate(0.34 -0.13)"/><polygon class="cls-4" points="408.85 110.52 408.85 92.87 297.45 92.87 297.45 169.13 408.85 169.13 408.85 151.47 314.95 151.47 314.95 140.44 361.16 140.44 361.16 123.03 314.95 123.03 314.95 110.52 408.85 110.52 408.85 110.52"/><polygon class="cls-4" points="542.88 110.52 542.88 92.87 431.47 92.87 431.47 169.13 542.88 169.13 542.88 151.47 448.98 151.47 448.98 110.52 542.88 110.52 542.88 110.52"/><polygon class="cls-4" points="565.8 169.13 565.8 92.87 585.01 92.87 585.01 123.03 664.95 123.03 664.95 92.87 684.89 92.87 684.89 169.13 664.95 169.13 664.95 140.44 585.01 140.44 585.01 169.13 565.8 169.13 565.8 169.13"/><polygon class="cls-4" points="816.71 110.52 816.71 92.87 705.3 92.87 705.3 169.13 816.71 169.13 816.71 151.47 722.81 151.47 722.81 140.44 769.01 140.44 769.01 123.03 722.81 123.03 722.81 110.52 816.71 110.52 816.71 110.52"/><polygon class="cls-4" points="829.67 92.87 900.91 170.84 972.14 92.87 944.66 92.87 900.91 141.67 856.43 92.87 829.67 92.87 829.67 92.87"/><path class="cls-4" d="M1062.69,169.26h26.75l-71.22-78-71.25,78h27.49l13.64-15.21h60.73Zm-59.42-32.13,15-16.67,15.19,16.67Z" transform="translate(0.34 -0.13)"/><path class="cls-4" d="M1124,123.9H1200s7.54-.74,7.54-6.13-7.06-7.12-7.06-7.12H1124Zm-18,45.36V93h92.34s26.52.24,26.52,25c0,16.92-19.46,23.54-19.46,23.54l23.84,27.71H1204.4l-23.35-29.67h-57.33v29.67Z" transform="translate(0.34 -0.13)"/><polygon class="cls-4" points="1500 110.52 1500 92.87 1388.59 92.87 1388.59 169.13 1500 169.13 1500 151.47 1406.12 151.47 1406.12 140.44 1452.32 140.44 1452.32 123.03 1406.12 123.03 1406.12 110.52 1500 110.52 1500 110.52"/><polygon class="cls-4" points="1244.97 169.13 1244.97 90.21 1345.77 123.03 1345.77 92.87 1365.79 92.87 1365.79 169.13 1346.04 169.13 1346.04 139.46 1265.6 115.44 1265.6 169.13 1244.97 169.13 1244.97 169.13"/><polygon class="cls-5" points="305.88 16.6 297.45 16.6 297.45 57.19 325.96 57.19 325.96 49.84 305.88 49.84 305.88 16.6"/><path class="cls-5" d="M353.83,49h14.9l2.59,8.36h9.16L366.26,16.73h-9.73L342.14,57.31H351Zm7.43-23.06h.1l5,16H356.08Z" transform="translate(0.34 -0.13)"/><path class="cls-5" d="M397.11,57.31H414.2a36.79,36.79,0,0,0,6.48-.45,11.74,11.74,0,0,0,3.79-1.26,12.43,12.43,0,0,0,5-5.72,12.73,12.73,0,0,0-.32-10.33,9,9,0,0,0-5-4.11,10.87,10.87,0,0,0,2-1.24,6.91,6.91,0,0,0,2-2.52,10.43,10.43,0,0,0,.91-4.55,10.63,10.63,0,0,0-1-4.56,9.35,9.35,0,0,0-3.79-4.07,14.82,14.82,0,0,0-7.61-1.77H397.11Zm8.09-17.86h10.74a7.46,7.46,0,0,1,4.18,1.12,4.4,4.4,0,0,1,1.91,3.8,5.75,5.75,0,0,1-1.7,4.52,7.12,7.12,0,0,1-4.78,1.42H405.2Zm0-15.72h9.67a8.71,8.71,0,0,1,4.54.93,3.7,3.7,0,0,1,1.66,3.43,4,4,0,0,1-1.74,3.47,7.51,7.51,0,0,1-4.23,1.05h-9.9Z" transform="translate(0.34 -0.13)"/><path class="cls-5" d="M445.75,37c.06,4.72.82,8.52,2.28,11.37a16.65,16.65,0,0,0,5.42,6.46,19.15,19.15,0,0,0,6.42,2.88,21.81,21.81,0,0,0,10.57,0,19.23,19.23,0,0,0,6.42-2.88,16.8,16.8,0,0,0,5.41-6.46c1.46-2.85,2.22-6.65,2.28-11.37s-.82-8.52-2.28-11.37a16.73,16.73,0,0,0-5.41-6.46,19.23,19.23,0,0,0-6.42-2.88,21.49,21.49,0,0,0-10.57,0,19.15,19.15,0,0,0-6.42,2.88A16.58,16.58,0,0,0,448,25.65C446.57,28.5,445.81,32.3,445.75,37Zm8.43,0q.07-5.62,1.83-8.73A10,10,0,0,1,460.28,24,10.89,10.89,0,0,1,470,24a10,10,0,0,1,4.27,4.31c1.17,2.07,1.77,5,1.83,8.73s-.66,6.67-1.83,8.73A10,10,0,0,1,470,50.06a10.89,10.89,0,0,1-9.74,0A10,10,0,0,1,456,45.75C454.84,43.69,454.23,40.77,454.18,37Z" transform="translate(0.34 -0.13)"/><path class="cls-5" d="M501.32,57.31h8.26V41.42h8.72a9.7,9.7,0,0,1,4.48.77,3.51,3.51,0,0,1,1.79,2.47,20.07,20.07,0,0,1,.31,4.46,42.83,42.83,0,0,0,.24,5,19.81,19.81,0,0,0,.66,3.24h9.33V56.24a2.32,2.32,0,0,1-1.57-2.07,38.94,38.94,0,0,1-.22-6,21.59,21.59,0,0,0-.6-5.71,5.89,5.89,0,0,0-1.73-3,10.11,10.11,0,0,0-2.79-1.63,8.69,8.69,0,0,0,4.62-3.67,11.33,11.33,0,0,0,1.62-6,12.37,12.37,0,0,0-.91-4.53,10.52,10.52,0,0,0-3.73-4.75q-2.76-2.09-8.07-2.19H501.32Zm8.26-22.72V23.73H520.1c2.41.09,4,.71,4.81,1.85a5.51,5.51,0,0,1,1.1,3.47c0,2-.54,3.41-1.62,4.28a7.67,7.67,0,0,1-4.91,1.26Z" transform="translate(0.34 -0.13)"/><path class="cls-5" d="M561.42,49h14.9l2.58,8.36h9.17L573.85,16.73h-9.73l-14.4,40.58h8.89Zm7.42-23.06H569l5,16H563.67Z" transform="translate(0.34 -0.13)"/><polygon class="cls-5" points="616.97 23.4 629.17 23.4 629.17 16.23 596.33 16.23 596.33 23.4 608.53 23.4 608.53 56.82 616.97 56.82 616.97 23.4"/><path class="cls-5" d="M640.83,37c.06,4.72.82,8.52,2.28,11.37a16.8,16.8,0,0,0,5.41,6.46,19.23,19.23,0,0,0,6.42,2.88,21.81,21.81,0,0,0,10.57,0,19.15,19.15,0,0,0,6.42-2.88,16.63,16.63,0,0,0,5.41-6.46c1.47-2.85,2.23-6.65,2.29-11.37s-.82-8.52-2.29-11.37a16.56,16.56,0,0,0-5.41-6.46,19.15,19.15,0,0,0-6.42-2.88,21.49,21.49,0,0,0-10.57,0,19.23,19.23,0,0,0-6.42,2.88,16.73,16.73,0,0,0-5.41,6.46C641.65,28.5,640.89,32.3,640.83,37Zm8.43,0q.07-5.62,1.83-8.73A10,10,0,0,1,655.36,24a10.89,10.89,0,0,1,9.74,0,10,10,0,0,1,4.26,4.31q1.77,3.11,1.84,8.73c-.05,3.75-.66,6.67-1.84,8.73a10,10,0,0,1-4.26,4.31,10.89,10.89,0,0,1-9.74,0,10,10,0,0,1-4.27-4.31C649.92,43.69,649.31,40.77,649.26,37Z" transform="translate(0.34 -0.13)"/><path class="cls-5" d="M696.3,57.31h8.26V41.42h8.72a9.67,9.67,0,0,1,4.48.77,3.51,3.51,0,0,1,1.79,2.47,20.6,20.6,0,0,1,.32,4.46,40.68,40.68,0,0,0,.24,5,18.81,18.81,0,0,0,.66,3.24h9.33V56.24a2.32,2.32,0,0,1-1.58-2.07,39.9,39.9,0,0,1-.23-6,21.32,21.32,0,0,0-.58-5.71,6,6,0,0,0-1.73-3,10.32,10.32,0,0,0-2.8-1.63,8.69,8.69,0,0,0,4.62-3.67,11.24,11.24,0,0,0,1.62-6,12.17,12.17,0,0,0-.91-4.53,10.46,10.46,0,0,0-3.73-4.75q-2.76-2.09-8.06-2.19H696.3Zm8.26-22.72V23.73h10.52c2.42.09,4,.71,4.82,1.85A5.5,5.5,0,0,1,721,29.05c0,2-.53,3.41-1.62,4.28a7.64,7.64,0,0,1-4.9,1.26Z" transform="translate(0.34 -0.13)"/><rect class="cls-4" x="750.04" y="16.6" width="8.43" height="40.58"/><path class="cls-5" d="M777.57,37c.06,4.72.82,8.52,2.28,11.37a16.74,16.74,0,0,0,5.42,6.46,19.19,19.19,0,0,0,6.41,2.88,21.85,21.85,0,0,0,10.58,0,19.23,19.23,0,0,0,6.42-2.88,16.72,16.72,0,0,0,5.41-6.46c1.46-2.85,2.22-6.65,2.28-11.37s-.82-8.52-2.28-11.37a16.64,16.64,0,0,0-5.41-6.46,19.23,19.23,0,0,0-6.42-2.88,21.53,21.53,0,0,0-10.58,0,19.19,19.19,0,0,0-6.41,2.88,16.66,16.66,0,0,0-5.42,6.46C778.39,28.5,777.63,32.3,777.57,37ZM786,37q.07-5.62,1.83-8.73A10.07,10.07,0,0,1,792.1,24a10.89,10.89,0,0,1,9.74,0,10,10,0,0,1,4.27,4.31q1.75,3.11,1.83,8.73c-.05,3.75-.66,6.67-1.83,8.73a10,10,0,0,1-4.27,4.31,10.89,10.89,0,0,1-9.74,0,10.07,10.07,0,0,1-4.27-4.31C786.66,43.69,786.05,40.77,786,37Z" transform="translate(0.34 -0.13)"/></svg>